# xmcd
#
# Track frame offsets:
#	150
#	14246
#	31975
#	45001
#	59853
#	71369
#	86975
#	104035
#	115335
#	128092
#	140532
#	159192
#	174333
#	186304
#	198619
#	216706
#	229629
#	246135
#	262467
#	277136
#	292289
#	305874
#	314612
#	327459
#
# Disc length: 4605 seconds
# Revision: 0
# Processed by: cddbd v1.5.2PL0 Copyright (c) Steve Scherf et al.
# Submitted via: dBpowerAMP V12.0
#
DISCID=9111fb18
DTITLE=Dr. Feelgood - Get Rhythm - The Best of 1984-1987
DYEAR=2013
DGENRE=R&B
TTITLE0=Close But No Cigar
TTITLE1=So Long
TTITLE2=You Don't Love Me
TTITLE3=Neighbour Neighbour
TTITLE4=Hit Git And Split
TTITLE5=I Can't Be Satisfied
TTITLE6=Saturday Night Fish Fry
TTITLE7=It Ain't Right
TTITLE8=I Don't Worry About A Thing
TTITLE9=She's In The Middle
TTITLE10=Dangerous
TTITLE11=I Love You So You're Mine
TTITLE12=You Got My Number
TTITLE13=Big Enough
TTITLE14=Don't Wait Up
TTITLE15=Get Rhythm
TTITLE16=Where Is The Next One
TTITLE17=Play Dirty
TTITLE18=Grow Too Old
TTITLE19=Rough Ride
TTITLE20=I'm A Real Man
TTITLE21=Come Over Here
TTITLE22=Take What You Can Get
TTITLE23=See You Later Alligator
EXTD=
EXTT0=
EXTT1=
EXTT2=
EXTT3=
EXTT4=
EXTT5=
EXTT6=
EXTT7=
EXTT8=
EXTT9=
EXTT10=
EXTT11=
EXTT12=
EXTT13=
EXTT14=
EXTT15=
EXTT16=
EXTT17=
EXTT18=
EXTT19=
EXTT20=
EXTT21=
EXTT22=
EXTT23=
PLAYORDER=
